<svg width="49" height="49" viewBox="0 0 49 49" fill="none" xmlns="http://www.w3.org/2000/svg">
<g id="ph:plus-bold">
<path id="Vector" d="M43.2812 24.1406C43.2812 24.7498 43.0393 25.334 42.6085 25.7648C42.1778 26.1955 41.5935 26.4375 40.9844 26.4375H26.4375V40.9844C26.4375 41.5935 26.1955 42.1778 25.7648 42.6085C25.334 43.0393 24.7498 43.2812 24.1406 43.2812C23.5315 43.2812 22.9472 43.0393 22.5165 42.6085C22.0857 42.1778 21.8438 41.5935 21.8438 40.9844V26.4375H7.29688C6.68771 26.4375 6.10349 26.1955 5.67274 25.7648C5.24199 25.334 5 24.7498 5 24.1406C5 23.5315 5.24199 22.9472 5.67274 22.5165C6.10349 22.0857 6.68771 21.8438 7.29688 21.8438H21.8438V7.29688C21.8438 6.68771 22.0857 6.10349 22.5165 5.67274C22.9472 5.24199 23.5315 5 24.1406 5C24.7498 5 25.334 5.24199 25.7648 5.67274C26.1955 6.10349 26.4375 6.68771 26.4375 7.29688V21.8438H40.9844C41.5935 21.8438 42.1778 22.0857 42.6085 22.5165C43.0393 22.9472 43.2812 23.5315 43.2812 24.1406Z" fill="white"/>
</g>
</svg>
